<svg xmlns="http://www.w3.org/2000/svg" width="434.6" height="165" viewBox="0 0 114.99 43.66"><defs/><path fill="none" stroke="#000" stroke-width="1.32" d="M0 43h114.99M0 .65h114.99"/><path fill-opacity=".99" d="M3.34 22.86a2.12 2.12 0 00-2.12 2.12 2.12 2.12 0 002.12 2.12 2.12 2.12 0 002.12-2.12 2.12 2.12 0 00-2.12-2.12zM3.33 18.03a1.06 1.06 0 00-1.05 1.06 1.06 1.06 0 001.06 1.06A1.06 1.06 0 004.4 19.1a1.06 1.06 0 00-1.06-1.06 1.06 1.06 0 00-.01 0zM3.34 11.09a2.12 2.12 0 00-2.12 2.11 2.12 2.12 0 002.12 2.12 2.12 2.12 0 002.12-2.12 2.12 2.12 0 00-2.12-2.11zM9.36 22.86a2.12 2.12 0 00-2.12 2.12 2.12 2.12 0 002.12 2.12 2.12 2.12 0 002.12-2.12 2.12 2.12 0 00-2.12-2.12zM9.34 18.03A1.06 1.06 0 008.3 19.1a1.06 1.06 0 001.06 1.06 1.06 1.06 0 001.06-1.06 1.06 1.06 0 00-1.06-1.06 1.06 1.06 0 00-.02 0zM15.38 33.76a2.12 2.12 0 00-2.12 2.11A2.12 2.12 0 0015.38 38a2.12 2.12 0 002.11-2.12 2.12 2.12 0 00-2.11-2.11zM15.36 18.03a1.06 1.06 0 00-1.04 1.06 1.06 1.06 0 001.06 1.06 1.06 1.06 0 001.05-1.06 1.06 1.06 0 00-1.05-1.06 1.06 1.06 0 00-.02 0zM15.38 11.09a2.12 2.12 0 00-2.12 2.11 2.12 2.12 0 002.12 2.12 2.12 2.12 0 002.11-2.12 2.12 2.12 0 00-2.11-2.11zM15.38 5.64a2.12 2.12 0 00-2.12 2.12 2.12 2.12 0 002.12 2.11 2.12 2.12 0 002.11-2.11 2.12 2.12 0 00-2.11-2.12zM21.38 18.03a1.06 1.06 0 00-1.05 1.06 1.06 1.06 0 001.06 1.06 1.06 1.06 0 001.06-1.06 1.06 1.06 0 00-1.06-1.06 1.06 1.06 0 00-.01 0zM21.4 11.09a2.12 2.12 0 00-2.12 2.11 2.12 2.12 0 002.11 2.12 2.12 2.12 0 002.12-2.12 2.12 2.12 0 00-2.12-2.11zM21.4 5.64a2.12 2.12 0 00-2.12 2.12 2.12 2.12 0 002.11 2.11 2.12 2.12 0 002.12-2.11 2.12 2.12 0 00-2.12-2.12zM27.4 28.3a2.12 2.12 0 00-2.1 2.13 2.12 2.12 0 002.1 2.11 2.12 2.12 0 002.13-2.11 2.12 2.12 0 00-2.12-2.12zM27.4 22.86a2.12 2.12 0 00-2.1 2.12 2.12 2.12 0 002.1 2.12 2.12 2.12 0 002.13-2.12 2.12 2.12 0 00-2.12-2.12zM27.4 18.03a1.06 1.06 0 00-1.05 1.06 1.06 1.06 0 001.06 1.06 1.06 1.06 0 001.06-1.06 1.06 1.06 0 00-1.06-1.06 1.06 1.06 0 00-.02 0zM33.43 33.76a2.12 2.12 0 00-2.12 2.11A2.12 2.12 0 0033.43 38a2.12 2.12 0 002.11-2.12 2.12 2.12 0 00-2.11-2.11zM33.41 18.03a1.06 1.06 0 00-1.04 1.06 1.06 1.06 0 001.06 1.06 1.06 1.06 0 001.05-1.06 1.06 1.06 0 00-1.05-1.06 1.06 1.06 0 00-.02 0zM39.44 22.86a2.12 2.12 0 00-2.11 2.12 2.12 2.12 0 002.11 2.12 2.12 2.12 0 002.12-2.12 2.12 2.12 0 00-2.12-2.12zM39.43 18.03a1.06 1.06 0 00-1.04 1.06 1.06 1.06 0 001.05 1.06 1.06 1.06 0 001.06-1.06 1.06 1.06 0 00-1.06-1.06 1.06 1.06 0 00-.01 0zM45.46 33.76a2.12 2.12 0 00-2.12 2.11A2.12 2.12 0 0045.46 38a2.12 2.12 0 002.12-2.12 2.12 2.12 0 00-2.12-2.11zM45.44 18.03a1.06 1.06 0 00-1.04 1.06 1.06 1.06 0 001.06 1.06 1.06 1.06 0 001.06-1.06 1.06 1.06 0 00-1.06-1.06 1.06 1.06 0 00-.02 0zM51.48 33.76a2.12 2.12 0 00-2.12 2.11A2.12 2.12 0 0051.48 38a2.12 2.12 0 002.11-2.12 2.12 2.12 0 00-2.11-2.11zM51.48 28.3a2.12 2.12 0 00-2.12 2.13 2.12 2.12 0 002.12 2.11 2.12 2.12 0 002.11-2.11 2.12 2.12 0 00-2.11-2.12zM51.46 18.03a1.06 1.06 0 00-1.04 1.06 1.06 1.06 0 001.06 1.06 1.06 1.06 0 001.06-1.06 1.06 1.06 0 00-1.06-1.06 1.06 1.06 0 00-.02 0zM57.5 22.86a2.12 2.12 0 00-2.12 2.12 2.12 2.12 0 002.11 2.12 2.12 2.12 0 002.12-2.12 2.12 2.12 0 00-2.12-2.12zM57.48 18.03a1.06 1.06 0 00-1.04 1.06 1.06 1.06 0 001.05 1.06 1.06 1.06 0 001.06-1.06 1.06 1.06 0 00-1.06-1.06 1.06 1.06 0 00-.01 0zM63.51 33.76a2.12 2.12 0 00-2.12 2.11A2.12 2.12 0 0063.51 38a2.12 2.12 0 002.12-2.12 2.12 2.12 0 00-2.12-2.11zM63.51 28.3a2.12 2.12 0 00-2.12 2.13 2.12 2.12 0 002.12 2.11 2.12 2.12 0 002.12-2.11 2.12 2.12 0 00-2.12-2.12zM63.5 18.03a1.06 1.06 0 00-1.05 1.06 1.06 1.06 0 001.06 1.06 1.06 1.06 0 001.06-1.06 1.06 1.06 0 00-1.06-1.06 1.06 1.06 0 00-.01 0zM63.51 11.09a2.12 2.12 0 00-2.12 2.11 2.12 2.12 0 002.12 2.12 2.12 2.12 0 002.12-2.12 2.12 2.12 0 00-2.12-2.11zM69.53 33.76a2.12 2.12 0 00-2.12 2.11A2.12 2.12 0 0069.53 38a2.12 2.12 0 002.12-2.12 2.12 2.12 0 00-2.12-2.11zM69.53 28.3a2.12 2.12 0 00-2.12 2.13 2.12 2.12 0 002.12 2.11 2.12 2.12 0 002.12-2.11 2.12 2.12 0 00-2.12-2.12zM69.51 18.03a1.06 1.06 0 00-1.04 1.06 1.06 1.06 0 001.06 1.06 1.06 1.06 0 001.06-1.06 1.06 1.06 0 00-1.06-1.06 1.06 1.06 0 00-.02 0zM75.55 22.86a2.12 2.12 0 00-2.12 2.12 2.12 2.12 0 002.12 2.12 2.12 2.12 0 002.11-2.12 2.12 2.12 0 00-2.11-2.12zM75.53 18.03a1.06 1.06 0 00-1.04 1.06 1.06 1.06 0 001.06 1.06 1.06 1.06 0 001.05-1.06 1.06 1.06 0 00-1.05-1.06 1.06 1.06 0 00-.02 0zM81.56 33.76a2.12 2.12 0 00-2.11 2.11A2.12 2.12 0 0081.56 38a2.12 2.12 0 002.12-2.12 2.12 2.12 0 00-2.12-2.11zM81.56 22.86a2.12 2.12 0 00-2.11 2.12 2.12 2.12 0 002.11 2.12 2.12 2.12 0 002.12-2.12 2.12 2.12 0 00-2.12-2.12zM81.55 18.03a1.06 1.06 0 00-1.05 1.06 1.06 1.06 0 001.06 1.06 1.06 1.06 0 001.06-1.06 1.06 1.06 0 00-1.06-1.06 1.06 1.06 0 00-.01 0zM87.58 33.76a2.12 2.12 0 00-2.12 2.11A2.12 2.12 0 0087.58 38a2.12 2.12 0 002.12-2.12 2.12 2.12 0 00-2.12-2.11zM87.58 28.3a2.12 2.12 0 00-2.12 2.13 2.12 2.12 0 002.12 2.11 2.12 2.12 0 002.12-2.11 2.12 2.12 0 00-2.12-2.12zM87.56 18.03a1.06 1.06 0 00-1.04 1.06 1.06 1.06 0 001.06 1.06 1.06 1.06 0 001.06-1.06 1.06 1.06 0 00-1.06-1.06 1.06 1.06 0 00-.02 0zM93.6 33.76a2.12 2.12 0 00-2.12 2.11A2.12 2.12 0 0093.6 38a2.12 2.12 0 002.11-2.12 2.12 2.12 0 00-2.11-2.11zM93.6 28.3a2.12 2.12 0 00-2.12 2.13 2.12 2.12 0 002.12 2.11 2.12 2.12 0 002.11-2.11 2.12 2.12 0 00-2.11-2.12zM93.6 22.86a2.12 2.12 0 00-2.12 2.12 2.12 2.12 0 002.12 2.12 2.12 2.12 0 002.11-2.12 2.12 2.12 0 00-2.11-2.12zM93.58 18.03a1.06 1.06 0 00-1.04 1.06 1.06 1.06 0 001.06 1.06 1.06 1.06 0 001.05-1.06 1.06 1.06 0 00-1.05-1.06 1.06 1.06 0 00-.02 0zM99.6 18.03a1.06 1.06 0 00-1.04 1.06 1.06 1.06 0 001.05 1.06 1.06 1.06 0 001.06-1.06 1.06 1.06 0 00-1.06-1.06 1.06 1.06 0 00-.01 0zM99.61 5.64a2.12 2.12 0 00-2.11 2.12 2.12 2.12 0 002.11 2.11 2.12 2.12 0 002.12-2.11 2.12 2.12 0 00-2.12-2.12zM105.63 33.76a2.12 2.12 0 00-2.12 2.11 2.12 2.12 0 002.12 2.12 2.12 2.12 0 002.12-2.12 2.12 2.12 0 00-2.12-2.11zM105.63 28.3a2.12 2.12 0 00-2.12 2.13 2.12 2.12 0 002.12 2.11 2.12 2.12 0 002.12-2.11 2.12 2.12 0 00-2.12-2.12zM105.61 18.03a1.06 1.06 0 00-1.04 1.06 1.06 1.06 0 001.06 1.06 1.06 1.06 0 001.06-1.06 1.06 1.06 0 00-1.06-1.06 1.06 1.06 0 00-.02 0zM105.63 11.09a2.12 2.12 0 00-2.12 2.11 2.12 2.12 0 002.12 2.12 2.12 2.12 0 002.12-2.12 2.12 2.12 0 00-2.12-2.11zM105.63 5.64a2.12 2.12 0 00-2.12 2.12 2.12 2.12 0 002.12 2.11 2.12 2.12 0 002.12-2.11 2.12 2.12 0 00-2.12-2.12zM111.65 33.76a2.12 2.12 0 00-2.12 2.11 2.12 2.12 0 002.12 2.12 2.12 2.12 0 002.11-2.12 2.12 2.12 0 00-2.11-2.11zM111.65 28.3a2.12 2.12 0 00-2.12 2.13 2.12 2.12 0 002.12 2.11 2.12 2.12 0 002.11-2.11 2.12 2.12 0 00-2.11-2.12zM111.65 22.86a2.12 2.12 0 00-2.12 2.12 2.12 2.12 0 002.12 2.12 2.12 2.12 0 002.11-2.12 2.12 2.12 0 00-2.11-2.12zM111.63 18.03a1.06 1.06 0 00-1.04 1.06 1.06 1.06 0 001.06 1.06 1.06 1.06 0 001.06-1.06 1.06 1.06 0 00-1.06-1.06 1.06 1.06 0 00-.02 0z"/></svg>
